<mxfile host="app.diagrams.net" modified="2024-06-02T10:52:17.870Z" agent="Mozilla/5.0 (Windows NT 10.0; Win64; x64) AppleWebKit/537.36 (KHTML, like Gecko) Chrome/125.0.0.0 Safari/537.36" version="24.4.13" etag="G3ibJuz8PNBzW3YtTltk" type="github">
  <diagram name="페이지-1" id="xv2KFfafuj2sg-8KfBdK">
    <mxGraphModel>
      <root>
        <mxCell id="0" />
        <mxCell id="1" parent="0" />
      </root>
    </mxGraphModel>
  </diagram>
</mxfile>
